<svg id="Layer_1" data-name="Layer 1" xmlns="http://www.w3.org/2000/svg" viewBox="0 0 52.56 14.4"><defs><style>.cls-1{fill:white;}</style></defs><title>rab_lighting</title><path class="cls-1" d="M4.79,7.09h6.49a1.19,1.19,0,0,0,1.45-1.34V5.32c0-1.13-.57-1.34-1.8-1.34H4.79V7.09M0.87,0.8H12.72c3,0,3.84,1.5,3.84,3.8V5.41c0,1.72-.39,2.72-2.19,3.15v0c1.17,0.21,2.14.72,2.14,2.83V13.6H12.57V12.06c0-1.34-.39-1.79-1.61-1.79H4.79V13.6H0.87V0.8"/><path class="cls-1" d="M23.38,8.58h5L25.86,3.77,23.38,8.58M23.31,0.8h5.11l7,12.8H31.09l-1.22-2.26h-8L20.76,13.6H16.38L23.31,0.8"/><path class="cls-1" d="M39.21,10.52h7c0.85,0,1.42-.19,1.42-0.94S47.1,8.53,46.25,8.53h-7v2m0-4.65h6.95a0.94,0.94,0,0,0,1.15-1,1,1,0,0,0-1.15-1H39.21v2h0ZM35.28,0.8h11.3c3.13,0,4.65.85,4.65,3.36,0,2.19-.8,2.62-1.89,2.94V7.15c1.72,0.21,2.35,1.13,2.35,3.06,0,2.81-1.66,3.4-3.91,3.4H35.28V0.8"/></svg>